<?xml version="1.0" standalone="no"?>
<!DOCTYPE svg PUBLIC "-//W3C//DTD SVG 20010904//EN"
 "http://www.w3.org/TR/2001/REC-SVG-20010904/DTD/svg10.dtd">
<svg version="1.0" xmlns="http://www.w3.org/2000/svg"
 width="2048.000000pt" height="2047.000000pt" viewBox="0 0 2048.000000 2047.000000"
 preserveAspectRatio="xMidYMid meet">

<g transform="translate(0.000000,2047.000000) scale(0.100000,-0.100000)"
fill="#000000" stroke="none">
<path d="M10015 19710 c-302 -3 -555 -8 -561 -12 -6 -4 -90 -8 -187 -8 -132
-1 -180 -5 -194 -16 -13 -9 -50 -13 -129 -14 -87 0 -114 -3 -124 -15 -9 -11
-34 -15 -100 -15 -66 0 -91 -4 -100 -15 -9 -11 -34 -15 -99 -15 -53 0 -92 -5
-99 -12 -7 -7 -35 -11 -69 -9 -39 1 -64 -3 -78 -13 -12 -9 -42 -15 -76 -16
-38 0 -61 -5 -69 -15 -8 -10 -31 -15 -70 -15 -39 0 -62 -5 -70 -15 -8 -10 -31
-15 -72 -15 -32 0 -69 -6 -81 -14 -12 -7 -35 -12 -52 -12 -16 1 -38 -4 -47
-12 -9 -8 -35 -14 -57 -14 -23 0 -45 -5 -52 -14 -7 -8 -30 -14 -59 -14 -33 0
-50 -5 -54 -15 -4 -11 -20 -15 -54 -15 -31 0 -54 -5 -61 -14 -7 -8 -22 -13
-34 -11 -11 3 -29 -2 -38 -11 -9 -8 -39 -18 -65 -20 -27 -3 -50 -10 -52 -15
-2 -5 -18 -9 -35 -9 -18 0 -41 -7 -51 -15 -11 -8 -32 -15 -47 -15 -14 0 -32
-7 -39 -15 -7 -8 -27 -15 -45 -15 -19 0 -35 -5 -37 -11 -2 -5 -19 -12 -38 -15
-19 -3 -39 -10 -45 -15 -5 -5 -24 -9 -42 -9 -21 0 -36 -6 -39 -15 -4 -9 -19
-15 -38 -15 -17 0 -40 -7 -50 -15 -11 -8 -32 -15 -48 -15 -15 0 -28 -4 -28
-10 0 -5 -18 -10 -39 -10 -25 0 -41 -5 -45 -15 -3 -8 -14 -15 -24 -15 -11 0
-25 -7 -32 -15 -7 -8 -25 -15 -40 -15 -15 0 -33 -7 -40 -15 -7 -8 -20 -15 -30
-15 -10 0 -23 -7 -30 -15 -7 -9 -23 -13 -36 -11 -13 3 -30 -2 -38 -10 -8 -8
-21 -14 -29 -14 -8 0 -20 -7 -27 -15 -7 -8 -28 -15 -47 -15 -21 0 -36 -6 -39
-15 -4 -8 -16 -15 -29 -15 -12 0 -28 -6 -34 -14 -7 -8 -23 -17 -36 -20 -14 -4
-25 -11 -25 -16 0 -6 -9 -10 -19 -10 -11 0 -23 -4 -26 -10 -3 -5 -21 -10 -39
-10 -19 0 -39 -7 -46 -15 -7 -8 -21 -15 -32 -15 -10 0 -21 -7 -24 -15 -4 -8
-12 -15 -19 -15 -6 0 -33 -11 -59 -25 -26 -14 -53 -25 -60 -25 -8 0 -19 -7
-26 -15 -7 -8 -20 -15 -30 -15 -10 0 -23 -7 -30 -15 -7 -8 -21 -15 -30 -15
-10 0 -20 -5 -22 -11 -2 -5 -10 -11 -18 -12 -8 -2 -22 -7 -30 -12 -32 -20 -85
-45 -95 -45 -6 0 -22 -11 -35 -25 -22 -23 -57 -42 -190 -104 -19 -8 -50 -29
-67 -45 -18 -17 -33 -26 -33 -22 0 4 -16 -2 -35 -14 -19 -12 -35 -19 -35 -15
0 3 -13 -8 -30 -25 -16 -16 -36 -30 -43 -30 -8 0 -20 -7 -27 -15 -7 -8 -20
-15 -29 -15 -10 0 -28 -11 -41 -25 -13 -14 -32 -25 -42 -25 -10 0 -21 -7 -24
-15 -4 -8 -15 -15 -26 -15 -12 0 -34 -13 -50 -30 -15 -16 -36 -30 -46 -30 -9
0 -26 -11 -36 -25 -10 -14 -25 -25 -34 -25 -8 0 -30 -13 -49 -30 -18 -16 -40
-30 -47 -30 -8 0 -30 -18 -50 -40 -20 -22 -43 -40 -52 -40 -9 0 -29 -12 -44
-27 -14 -16 -34 -29 -44 -31 -10 -2 -35 -21 -55 -43 -21 -21 -45 -39 -54 -39
-10 0 -33 -18 -53 -40 -20 -22 -45 -40 -55 -40 -11 0 -35 -18 -55 -40 -20 -22
-44 -40 -53 -40 -9 0 -42 -27 -75 -60 -32 -33 -64 -60 -71 -60 -7 0 -43 -29
-80 -65 -38 -36 -73 -65 -80 -65 -7 0 -51 -38 -97 -85 -47 -47 -92 -85 -99
-85 -16 0 -29 -12 -145 -131 -45 -46 -92 -93 -105 -105 -13 -12 -86 -84 -162
-161 -76 -77 -189 -191 -252 -253 -64 -61 -114 -118 -113 -124 2 -7 -41 -56
-94 -109 -54 -54 -98 -105 -98 -115 0 -9 -25 -39 -55 -67 -30 -27 -55 -56 -55
-65 0 -8 -25 -40 -55 -70 -30 -30 -54 -62 -55 -71 0 -8 -25 -39 -55 -68 -30
-29 -55 -60 -55 -68 0 -8 -20 -35 -45 -60 -25 -24 -45 -51 -45 -60 0 -9 -11
-26 -25 -39 -14 -13 -25 -30 -25 -39 0 -8 -18 -33 -40 -55 -22 -22 -40 -46
-40 -53 0 -7 -14 -26 -30 -42 -17 -16 -30 -35 -30 -43 0 -8 -13 -30 -30 -49
-16 -18 -30 -38 -30 -43 0 -5 -11 -20 -25 -34 -14 -14 -25 -33 -25 -43 0 -10
-9 -24 -20 -31 -19 -12 -60 -85 -60 -107 0 -7 -13 -25 -30 -41 -16 -16 -30
-36 -30 -45 0 -8 -11 -26 -25 -39 -14 -13 -25 -32 -25 -42 0 -10 -7 -21 -15
-24 -8 -4 -15 -11 -15 -18 0 -20 -38 -88 -65 -116 -14 -14 -22 -29 -19 -33 4
-4 0 -15 -8 -24 -9 -10 -25 -38 -36 -63 -12 -25 -32 -57 -46 -72 -14 -15 -26
-32 -26 -38 0 -6 -7 -22 -16 -35 -9 -14 -13 -25 -9 -25 5 0 1 -8 -7 -17 -9
-10 -19 -28 -22 -40 -4 -13 -12 -23 -17 -23 -5 0 -9 -7 -9 -15 0 -9 -7 -27
-16 -40 -9 -14 -13 -25 -9 -25 5 0 1 -8 -7 -17 -16 -19 -78 -144 -78 -157 0
-4 -7 -14 -15 -22 -8 -9 -15 -24 -15 -34 0 -10 -7 -20 -15 -24 -8 -3 -15 -14
-15 -25 0 -11 -4 -23 -10 -26 -5 -3 -10 -14 -10 -24 0 -10 -7 -24 -15 -31 -8
-7 -15 -28 -15 -47 0 -21 -6 -36 -15 -39 -8 -4 -15 -14 -15 -24 0 -10 -7 -23
-15 -30 -8 -7 -15 -23 -15 -35 0 -13 -6 -25 -13 -28 -9 -3 -12 -16 -9 -36 3
-22 0 -33 -12 -37 -9 -3 -16 -14 -16 -24 0 -10 -7 -23 -15 -30 -8 -7 -15 -20
-15 -30 0 -10 -7 -23 -15 -30 -8 -7 -15 -27 -15 -45 0 -19 -3 -35 -7 -37 -15
-6 -43 -70 -43 -98 0 -15 -7 -33 -15 -40 -8 -7 -15 -27 -15 -45 0 -18 -7 -38
-15 -45 -8 -7 -15 -25 -15 -40 0 -15 -7 -33 -15 -40 -8 -7 -15 -20 -15 -30 0
-10 -6 -22 -13 -28 -7 -6 -14 -23 -15 -38 -1 -16 -7 -33 -12 -38 -6 -6 -10
-24 -10 -42 0 -17 -7 -37 -15 -44 -8 -7 -15 -28 -15 -47 0 -21 -6 -36 -15 -39
-9 -4 -15 -19 -15 -39 0 -18 -6 -38 -14 -44 -8 -7 -12 -26 -10 -50 2 -28 -2
-44 -16 -56 -10 -9 -16 -24 -13 -36 3 -10 -2 -30 -11 -44 -9 -13 -16 -42 -16
-63 0 -23 -6 -45 -15 -52 -8 -7 -15 -26 -15 -42 0 -16 -7 -40 -16 -53 -9 -14
-13 -32 -9 -45 4 -13 0 -31 -9 -45 -9 -13 -16 -41 -16 -62 0 -21 -7 -47 -15
-57 -9 -12 -15 -42 -15 -72 0 -34 -5 -56 -15 -64 -9 -8 -15 -30 -15 -60 0 -30
-6 -52 -15 -60 -10 -8 -15 -31 -15 -69 0 -31 -5 -62 -11 -68 -5 -5 -11 -35
-12 -66 -2 -31 -8 -62 -15 -69 -7 -7 -12 -40 -12 -79 0 -47 -5 -72 -15 -83
-11 -11 -15 -38 -15 -104 0 -71 -3 -91 -15 -96 -12 -4 -15 -24 -15 -94 0 -71
-3 -92 -16 -103 -14 -12 -16 -29 -11 -119 4 -82 2 -108 -9 -121 -10 -11 -14
-52 -15 -166 0 -118 -4 -154 -15 -164 -22 -18 -21 -1341 1 -1359 12 -10 15
-42 15 -165 0 -118 3 -155 14 -164 10 -9 13 -38 11 -122 -2 -87 1 -113 12
-125 12 -11 15 -36 14 -98 -1 -64 2 -86 14 -96 11 -9 15 -34 15 -102 0 -70 3
-90 15 -94 11 -5 15 -22 15 -69 0 -43 5 -66 15 -75 11 -9 15 -32 14 -83 -1
-44 3 -73 10 -75 7 -2 11 -30 11 -68 0 -48 4 -66 15 -70 11 -4 15 -21 15 -59
0 -38 4 -55 15 -59 10 -4 15 -19 15 -49 0 -28 6 -49 16 -58 10 -8 14 -26 13
-55 -2 -29 2 -47 15 -59 13 -13 16 -27 11 -55 -5 -27 -2 -40 9 -50 11 -8 16
-29 16 -60 0 -33 5 -50 15 -54 11 -4 15 -20 15 -54 0 -32 5 -54 15 -62 8 -7
15 -26 15 -42 0 -16 7 -37 16 -45 9 -10 13 -25 10 -38 -4 -14 0 -28 9 -35 8
-7 15 -28 15 -47 0 -21 6 -36 15 -39 9 -4 15 -19 15 -39 0 -18 7 -38 15 -45 9
-8 15 -29 15 -56 0 -23 5 -46 10 -49 6 -3 10 -15 10 -25 0 -10 8 -25 19 -32
13 -9 17 -22 15 -46 -3 -22 1 -34 11 -38 9 -4 15 -19 15 -39 0 -18 7 -38 15
-45 8 -7 15 -25 15 -41 0 -15 7 -34 15 -43 8 -8 15 -24 15 -34 0 -11 5 -22 11
-24 6 -2 12 -19 14 -37 1 -18 8 -38 14 -44 6 -6 11 -18 11 -27 0 -9 8 -24 19
-34 12 -11 16 -25 13 -43 -3 -17 0 -29 12 -35 9 -5 16 -17 16 -27 0 -10 7 -24
15 -31 8 -7 15 -25 15 -41 0 -15 5 -31 10 -34 6 -3 10 -14 10 -24 0 -10 7 -24
15 -31 8 -7 15 -20 15 -30 0 -10 7 -23 15 -30 8 -7 15 -20 15 -30 0 -10 7 -23
15 -30 9 -7 14 -19 11 -26 -3 -8 2 -18 11 -23 10 -5 16 -21 15 -39 0 -17 6
-36 14 -43 8 -6 14 -19 14 -29 0 -10 7 -23 15 -30 8 -7 15 -21 15 -31 0 -11 4
-19 10 -19 5 0 13 -12 16 -27 4 -16 10 -30 13 -33 11 -9 41 -71 41 -85 0 -7 7
-18 15 -25 8 -7 15 -21 15 -32 0 -10 7 -21 15 -24 8 -4 15 -13 15 -22 0 -26
41 -102 61 -113 10 -5 19 -18 19 -29 0 -10 7 -25 15 -34 8 -8 15 -21 15 -29 0
-8 7 -20 15 -27 8 -7 15 -18 15 -25 0 -21 32 -79 57 -102 13 -12 23 -31 23
-41 0 -11 7 -22 15 -26 8 -3 15 -12 15 -21 0 -9 9 -26 21 -38 12 -12 26 -34
31 -50 6 -15 14 -27 19 -27 5 0 9 -10 9 -23 0 -13 13 -33 30 -47 17 -14 30
-32 30 -41 0 -8 11 -26 25 -39 14 -13 25 -31 25 -40 0 -9 13 -29 30 -45 16
-16 30 -36 30 -45 0 -9 11 -27 25 -40 14 -13 25 -29 25 -36 0 -7 14 -28 30
-46 17 -18 30 -38 30 -46 0 -7 11 -23 25 -36 14 -13 25 -30 25 -38 0 -8 13
-28 30 -44 16 -16 30 -36 30 -44 0 -8 19 -33 40 -55 22 -22 40 -46 40 -53 0
-8 18 -32 40 -53 22 -22 41 -48 43 -58 2 -11 22 -37 45 -58 23 -21 42 -46 42
-54 0 -9 31 -47 70 -85 38 -38 70 -76 70 -85 0 -9 30 -45 67 -80 37 -35 68
-73 70 -84 2 -11 46 -62 98 -113 52 -51 95 -100 95 -109 0 -18 615 -633 633
-633 8 0 63 -49 123 -110 60 -60 116 -110 124 -110 9 0 46 -31 84 -69 38 -38
79 -72 90 -75 12 -3 43 -28 70 -56 26 -27 54 -50 62 -50 7 0 34 -20 60 -45 25
-25 49 -43 54 -40 4 3 28 -15 53 -40 26 -25 52 -45 60 -45 8 0 32 -18 53 -40
22 -22 44 -40 50 -40 7 0 33 -20 60 -44 26 -25 51 -43 54 -41 4 2 22 -9 41
-25 19 -16 42 -29 51 -30 10 0 22 -9 28 -21 7 -11 26 -27 44 -34 17 -7 40 -23
50 -34 11 -12 27 -21 36 -21 9 0 29 -14 45 -30 16 -17 36 -30 45 -30 9 0 25
-9 35 -20 16 -18 92 -60 109 -60 4 0 19 -13 33 -30 13 -16 33 -30 43 -30 10 0
22 -4 25 -10 3 -5 14 -10 24 -10 9 0 30 -14 46 -30 16 -17 37 -30 47 -30 10 0
18 -4 18 -10 0 -5 8 -10 17 -10 9 0 24 -7 33 -15 10 -9 27 -18 39 -20 12 -2
31 -16 42 -30 11 -14 29 -25 39 -25 9 0 23 -7 30 -15 7 -8 21 -15 32 -15 10 0
21 -7 24 -15 4 -8 17 -15 30 -15 13 0 24 -4 24 -10 0 -5 7 -10 15 -10 20 0 95
-40 95 -51 0 -5 9 -9 19 -9 21 0 84 -30 89 -42 2 -5 12 -8 22 -8 9 0 23 -7 30
-15 7 -8 23 -15 35 -15 13 0 25 -7 29 -15 3 -8 12 -15 19 -15 8 0 35 -11 61
-25 26 -14 54 -25 62 -25 8 0 17 -7 20 -15 4 -8 14 -15 24 -15 10 0 23 -7 30
-15 7 -8 20 -15 30 -15 10 0 23 -7 30 -15 7 -8 27 -15 45 -15 19 0 35 -5 37
-10 2 -6 14 -12 27 -15 14 -2 27 -8 30 -12 12 -16 73 -43 96 -43 13 0 30 -7
39 -15 8 -8 24 -15 36 -15 11 0 23 -7 26 -15 4 -8 18 -15 32 -15 29 0 102 -30
102 -42 0 -4 15 -8 34 -8 19 0 41 -7 50 -15 8 -8 27 -15 43 -15 15 0 37 -7 47
-15 11 -8 28 -15 37 -15 10 0 39 -11 65 -25 26 -14 57 -25 70 -25 12 0 29 -7
38 -15 8 -8 25 -15 38 -15 13 0 33 -7 44 -15 10 -8 32 -15 47 -15 16 0 35 -7
43 -15 10 -10 26 -13 46 -10 18 3 39 0 52 -8 11 -8 38 -17 59 -21 20 -4 37
-11 37 -16 0 -6 15 -10 34 -10 18 0 39 -7 46 -15 8 -9 29 -15 56 -15 24 0 49
-6 58 -15 8 -9 33 -15 60 -15 25 0 48 -5 51 -10 3 -6 26 -10 49 -10 27 0 48
-6 56 -15 7 -9 29 -15 55 -15 26 0 48 -6 55 -15 8 -9 30 -15 60 -15 30 0 52
-6 60 -15 8 -10 31 -15 70 -15 35 0 62 -5 68 -13 7 -8 32 -12 67 -12 35 1 60
-4 67 -12 6 -8 33 -13 68 -13 39 0 62 -5 70 -15 9 -11 33 -15 87 -15 53 0 75
-4 79 -14 4 -10 30 -14 97 -15 66 -2 96 -6 108 -17 13 -12 38 -15 115 -12 71
2 98 0 101 -9 4 -10 38 -13 127 -13 92 0 127 -4 142 -15 15 -11 61 -14 232
-15 180 0 214 -2 218 -15 9 -23 885 -23 904 0 10 12 47 15 209 15 156 1 200 4
215 15 15 11 50 15 141 15 73 0 125 4 132 11 6 6 53 11 107 11 71 1 101 5 112
15 10 11 38 14 98 14 62 0 87 3 96 14 9 11 33 15 85 15 48 0 76 4 84 13 6 8
35 15 67 16 31 1 66 8 78 16 11 7 41 12 64 11 24 -1 51 4 60 11 10 7 40 13 68
13 28 0 59 6 70 15 10 8 38 15 60 15 24 0 47 6 54 15 8 10 31 15 70 15 39 0
62 5 70 15 8 9 30 15 59 15 25 0 55 7 65 15 11 8 28 13 37 10 9 -3 24 1 32 10
10 9 34 15 62 15 31 0 47 5 51 15 4 9 19 15 38 15 17 0 40 7 50 15 11 8 39 15
62 15 23 0 44 5 46 11 2 5 19 11 38 13 18 1 36 8 38 14 2 7 19 12 39 12 19 0
41 7 49 15 9 8 28 15 43 15 16 0 34 7 41 15 7 8 27 15 45 15 18 0 38 7 45 15
7 8 27 15 45 15 19 0 35 5 37 11 2 5 18 11 36 11 18 1 37 7 43 15 6 7 18 13
26 13 8 0 21 7 29 15 9 8 28 15 43 15 16 0 34 6 40 13 6 8 25 14 43 15 18 0
34 6 36 11 2 6 12 11 22 11 9 0 23 7 30 15 7 8 26 15 42 15 16 0 36 7 44 15 9
8 24 15 35 15 10 0 19 4 19 8 0 12 107 55 119 48 5 -3 14 1 21 9 7 8 20 15 30
15 10 0 23 7 30 15 7 8 20 15 30 15 10 0 20 7 24 15 3 8 16 15 30 15 13 0 26
5 28 11 2 5 19 12 38 15 19 3 40 11 45 17 6 7 19 13 30 15 11 2 25 9 30 15 6
7 15 12 20 13 17 1 83 33 90 44 3 5 14 10 24 10 10 0 24 7 31 15 7 8 16 13 20
10 5 -3 15 2 23 10 9 8 25 15 37 15 11 0 23 7 26 15 4 8 14 15 24 15 10 0 23
7 30 15 7 8 20 15 29 15 9 0 30 12 46 28 16 15 34 26 39 24 4 -2 16 3 25 10
27 22 78 48 94 48 9 0 17 5 19 11 2 5 11 11 21 13 10 1 31 14 47 29 15 15 35
27 43 27 8 0 20 7 27 15 7 8 20 15 29 15 9 0 27 12 40 25 13 14 31 25 41 25
10 0 20 7 24 15 3 8 15 15 26 15 11 0 28 9 38 21 9 11 45 34 79 51 35 16 69
38 76 48 7 10 25 22 40 25 15 4 34 17 42 29 9 11 20 22 25 22 6 1 14 2 20 3 5
0 20 12 34 26 14 14 31 25 39 25 7 0 26 14 42 30 16 17 36 30 45 30 9 0 34 18
55 40 21 22 47 40 57 40 10 0 25 11 33 24 9 14 29 29 44 34 15 5 42 26 61 46
19 20 41 36 50 36 8 0 34 18 58 40 24 22 48 40 55 40 7 0 39 27 72 60 33 33
64 59 70 56 6 -2 42 27 80 65 39 38 77 69 85 69 8 0 51 38 97 85 46 47 89 85
97 85 18 0 856 837 856 855 0 8 36 50 80 95 45 44 84 89 88 99 4 11 35 49 69
85 35 36 63 70 63 76 0 6 20 33 45 59 25 26 45 53 45 60 0 6 25 37 55 67 30
31 55 62 55 69 0 8 18 31 40 53 22 21 40 45 40 54 0 8 14 27 30 43 17 16 30
36 30 46 0 9 18 33 40 53 22 20 40 45 40 55 0 11 12 29 27 41 14 11 27 29 28
39 0 10 13 30 28 43 15 14 27 32 27 41 0 8 14 29 30 45 17 17 30 37 30 45 0 8
9 22 20 32 19 17 60 92 60 111 0 5 14 22 30 37 17 16 30 35 30 44 0 8 7 21 15
30 8 8 13 18 10 22 -2 4 9 21 25 36 17 16 30 36 30 46 0 9 7 22 15 29 8 7 15
19 15 27 0 7 9 24 21 36 11 12 25 31 30 42 5 11 13 27 18 35 26 47 41 80 41
94 0 9 4 16 8 16 9 0 42 70 42 88 0 6 9 16 21 22 18 10 64 94 61 112 -1 3 5
12 13 18 8 7 15 20 15 30 0 10 6 23 14 29 8 7 17 23 20 36 4 14 11 25 16 25 6
0 10 9 10 21 0 11 7 27 15 35 8 9 15 24 15 35 0 10 6 19 14 19 16 0 74 82 82
117 4 13 10 23 14 23 5 0 16 21 26 47 9 27 21 52 26 58 4 5 8 21 8 35 0 14 9
43 20 65 23 46 38 111 23 102 -14 -9 -7 49 11 93 40 96 129 327 145 378 11 31
24 68 29 82 6 14 25 70 42 125 16 55 34 109 40 120 5 11 18 52 30 90 12 39 27
90 35 115 8 25 26 90 41 145 15 55 42 156 60 225 36 132 49 189 64 283 6 32
14 67 20 77 5 10 10 32 10 48 0 16 7 48 15 71 8 23 12 48 9 56 -3 8 2 38 12
67 9 29 18 70 20 90 1 20 5 45 8 55 3 10 13 65 22 123 8 58 23 150 31 205 8
55 17 127 19 160 1 33 8 89 15 125 6 36 13 108 15 160 1 52 8 131 14 175 27
204 27 1297 0 1461 -5 34 -10 111 -10 171 0 75 -5 122 -15 146 -8 20 -17 73
-19 119 -4 88 -30 293 -40 318 -3 8 -10 49 -15 90 -5 41 -12 86 -16 100 -7 27
-20 107 -35 205 -10 72 -26 148 -41 193 -6 18 -14 56 -19 85 -11 71 -78 341
-120 482 -9 33 -22 78 -28 100 -25 89 -75 252 -86 280 -7 17 -21 57 -31 90 -9
33 -21 68 -26 77 -5 10 -9 23 -9 29 0 6 -6 25 -14 42 -7 18 -26 70 -41 117
-15 46 -36 100 -46 120 -11 19 -19 40 -19 47 0 7 -11 36 -24 65 -39 88 -74
172 -81 198 -4 14 -18 41 -32 62 -14 20 -28 60 -32 90 -4 29 -15 65 -24 79 -9
14 -20 47 -23 73 -4 26 -15 64 -25 84 -11 20 -19 45 -19 55 0 11 -10 32 -22
48 -60 76 -68 88 -68 102 0 9 -4 17 -8 19 -13 5 -53 89 -47 99 4 5 1 9 -5 9
-6 0 -13 8 -17 18 -12 36 -45 102 -54 108 -5 3 -9 14 -9 24 0 11 -11 27 -25
36 -14 9 -25 24 -25 34 0 10 -7 23 -15 30 -8 7 -15 20 -15 30 0 10 -7 23 -15
30 -8 7 -15 18 -15 25 0 22 -44 96 -62 106 -10 5 -18 18 -18 28 0 10 -7 24
-15 31 -8 7 -15 22 -15 34 0 12 -9 27 -20 34 -11 7 -31 37 -45 66 -13 29 -36
64 -49 77 -14 13 -26 34 -26 46 0 13 -11 30 -25 39 -14 9 -25 24 -25 34 0 10
-13 30 -30 43 -16 14 -30 34 -30 44 0 11 -14 32 -30 48 -17 16 -28 35 -26 42
3 6 -8 23 -24 37 -17 14 -30 32 -30 41 0 9 -12 28 -27 43 -15 15 -29 35 -30
44 -2 10 -21 35 -43 57 -22 21 -40 45 -40 53 0 8 -13 27 -30 43 -16 15 -27 32
-24 36 3 5 -19 33 -47 64 -29 30 -58 68 -65 84 -7 16 -28 41 -48 57 -20 16
-36 36 -36 44 0 9 -25 41 -55 70 -30 30 -55 63 -55 72 0 9 -38 54 -85 99 -46
45 -82 86 -79 91 4 6 -57 73 -135 151 -77 78 -141 148 -141 155 0 19 -372 392
-391 392 -8 0 -75 61 -149 135 -74 74 -142 135 -151 135 -9 0 -53 38 -98 85
-45 47 -89 85 -97 85 -8 0 -41 25 -72 55 -31 30 -62 55 -69 55 -7 0 -36 25
-65 55 -30 32 -61 55 -72 55 -12 0 -36 17 -55 40 -19 22 -41 40 -51 40 -9 0
-37 20 -61 45 -24 25 -51 45 -60 45 -9 0 -25 11 -35 25 -10 14 -26 25 -35 25
-9 0 -31 14 -49 30 -18 17 -39 30 -47 30 -8 0 -31 18 -50 40 -20 22 -44 40
-53 40 -9 0 -29 14 -45 30 -16 17 -35 30 -42 30 -8 0 -26 11 -41 25 -15 14
-34 25 -43 25 -9 0 -22 7 -29 15 -7 8 -19 15 -27 15 -8 0 -26 14 -40 31 -14
16 -31 28 -38 25 -6 -2 -26 9 -43 25 -17 16 -37 29 -45 29 -8 0 -20 7 -27 15
-7 8 -20 15 -29 15 -9 0 -28 13 -41 29 -14 15 -30 26 -36 24 -6 -2 -18 3 -27
11 -9 9 -22 16 -30 16 -8 0 -20 7 -27 15 -7 8 -21 15 -32 15 -10 0 -21 7 -24
15 -4 8 -12 15 -20 15 -8 0 -14 4 -14 9 0 5 -11 12 -25 15 -14 4 -25 11 -25
16 0 6 -8 10 -19 10 -10 0 -24 7 -31 15 -7 8 -23 15 -36 15 -13 0 -24 3 -24 8
0 4 -38 25 -85 47 -47 21 -85 43 -85 47 0 4 -11 8 -24 8 -13 0 -26 7 -30 15
-3 8 -14 15 -24 15 -11 0 -25 7 -32 15 -7 8 -20 15 -29 15 -9 0 -25 7 -35 15
-10 8 -22 12 -26 10 -4 -3 -13 2 -20 10 -7 8 -21 15 -32 15 -10 0 -21 7 -24
15 -4 8 -12 15 -19 15 -6 0 -33 11 -59 25 -26 14 -53 25 -60 25 -8 0 -19 7
-26 15 -7 8 -27 15 -45 15 -20 0 -35 6 -39 15 -3 8 -14 15 -24 15 -11 0 -25 7
-32 15 -7 8 -20 15 -29 15 -9 0 -21 4 -26 9 -6 6 -23 12 -40 15 -33 6 -98 37
-103 49 -2 4 -16 7 -31 7 -15 0 -36 7 -47 15 -10 8 -25 15 -32 15 -7 0 -20 7
-28 15 -9 8 -28 15 -43 15 -16 0 -34 7 -42 16 -8 9 -21 13 -35 10 -13 -4 -28
0 -36 7 -7 8 -26 17 -41 21 -15 3 -27 11 -27 16 0 6 -15 10 -34 10 -18 0 -39
7 -46 15 -7 8 -28 15 -47 15 -21 0 -36 6 -39 15 -4 10 -15 13 -34 10 -17 -3
-32 1 -40 10 -7 8 -28 15 -47 15 -21 0 -36 6 -39 15 -4 9 -19 15 -39 15 -19 0
-40 7 -49 15 -8 9 -33 15 -59 15 -28 0 -49 6 -57 15 -8 9 -21 13 -32 9 -12 -3
-27 1 -39 12 -13 12 -33 17 -63 16 -31 -2 -46 2 -50 13 -3 9 -18 15 -39 15
-19 0 -40 7 -47 15 -7 9 -29 15 -55 15 -26 0 -48 6 -55 15 -8 10 -31 15 -71
15 -32 0 -61 5 -64 10 -3 6 -26 10 -51 10 -27 0 -52 6 -60 15 -9 9 -34 15 -58
15 -27 0 -48 6 -56 15 -8 10 -31 15 -70 15 -39 0 -62 5 -70 15 -9 11 -33 15
-85 15 -51 0 -76 4 -85 15 -9 10 -30 13 -81 11 -48 -1 -73 2 -81 11 -7 8 -35
13 -79 13 -47 0 -72 5 -83 15 -11 11 -39 15 -114 15 -76 0 -102 4 -112 15 -10
12 -37 15 -122 15 -78 0 -115 4 -131 15 -17 11 -57 14 -179 13 -115 -1 -162 3
-173 12 -20 16 13 16 -630 10z m510 -367 c168 -5 270 -13 288 -21 17 -7 72
-12 138 -12 70 0 118 -5 132 -12 20 -12 97 -20 319 -34 57 -4 91 -10 99 -20 8
-10 33 -14 84 -14 52 0 76 -4 85 -15 9 -11 32 -15 81 -15 47 0 72 -5 83 -15
10 -10 35 -15 75 -15 33 0 63 -4 66 -10 3 -5 28 -10 54 -10 26 0 56 -7 67 -15
10 -8 37 -15 59 -15 22 0 51 -7 65 -15 14 -8 41 -14 61 -15 19 0 44 -7 55 -15
10 -8 37 -15 59 -15 22 0 49 -7 59 -15 11 -8 37 -15 57 -15 21 0 41 -4 44 -10
3 -5 21 -10 38 -10 18 0 41 -7 51 -15 11 -8 34 -15 51 -15 17 0 40 -7 51 -15
10 -8 33 -15 51 -15 17 0 34 -4 37 -9 4 -5 24 -12 46 -16 22 -4 40 -11 40 -16
0 -5 15 -9 34 -9 18 0 39 -7 46 -15 7 -8 27 -15 45 -15 18 0 38 -7 45 -15 7
-8 24 -15 39 -15 15 0 32 -5 38 -11 5 -5 25 -12 44 -14 19 -3 35 -9 37 -15 2
-5 16 -10 31 -10 15 0 36 -7 47 -15 10 -8 26 -15 35 -15 9 0 22 -7 29 -15 7
-8 24 -15 39 -15 14 0 35 -7 45 -15 11 -8 32 -15 48 -15 15 0 28 -4 28 -10 0
-5 5 -10 11 -10 6 0 25 -6 42 -14 28 -11 56 -23 127 -50 8 -3 22 -10 30 -15
42 -24 79 -41 89 -41 22 0 635 -300 656 -321 5 -5 15 -9 22 -9 7 0 52 -24 100
-53 48 -29 106 -61 128 -72 22 -11 42 -22 45 -25 5 -6 52 -34 125 -75 39 -23
127 -78 174 -111 13 -10 45 -28 70 -41 25 -14 53 -31 61 -38 21 -18 121 -85
127 -85 3 0 24 -15 47 -34 23 -18 55 -40 71 -49 17 -8 39 -24 49 -36 11 -12
23 -21 29 -21 5 0 31 -18 57 -40 26 -22 52 -40 57 -40 5 0 22 -14 39 -31 16
-17 45 -39 64 -49 19 -10 51 -34 69 -54 19 -20 41 -36 48 -36 7 0 39 -25 70
-55 32 -30 63 -55 69 -55 7 0 36 -24 65 -53 30 -30 70 -64 89 -77 19 -13 76
-63 126 -112 50 -48 97 -88 103 -88 18 0 620 -600 638 -635 9 -16 57 -72 106
-123 50 -51 100 -106 110 -122 10 -16 41 -53 69 -82 28 -29 58 -65 67 -79 9
-14 40 -52 69 -84 28 -32 52 -64 52 -70 0 -6 14 -24 31 -41 17 -16 38 -43 47
-60 10 -17 32 -49 49 -70 65 -78 123 -154 123 -161 1 -5 14 -24 30 -43 17 -19
30 -39 30 -45 0 -7 11 -22 25 -35 14 -13 25 -28 25 -34 0 -6 11 -24 25 -41 14
-16 32 -45 40 -63 8 -18 21 -35 30 -38 8 -3 15 -14 15 -23 1 -9 14 -32 30 -51
17 -19 30 -37 30 -41 0 -3 20 -37 45 -75 25 -37 45 -74 45 -81 0 -7 4 -13 8
-13 5 0 17 -17 28 -37 10 -21 25 -44 32 -51 6 -7 12 -19 12 -25 0 -7 10 -24
23 -39 13 -15 32 -46 43 -70 10 -24 21 -45 25 -48 6 -5 14 -18 73 -131 21 -41
42 -75 47 -77 5 -2 9 -12 9 -22 0 -9 7 -23 15 -30 8 -7 15 -18 15 -25 0 -13
29 -74 40 -85 11 -11 40 -72 40 -85 0 -7 7 -18 15 -25 8 -7 15 -21 15 -31 0
-11 5 -19 10 -19 6 0 10 -4 10 -10 0 -5 20 -52 45 -103 25 -52 45 -99 45 -105
0 -6 6 -23 14 -39 8 -15 33 -65 55 -110 23 -44 41 -90 41 -101 0 -10 13 -46
30 -78 16 -32 30 -67 30 -76 0 -9 5 -20 10 -23 6 -3 10 -19 10 -35 0 -16 14
-49 30 -73 17 -25 30 -55 30 -68 0 -13 7 -33 15 -43 8 -11 15 -30 15 -43 0
-23 3 -30 34 -90 9 -17 16 -42 16 -55 0 -13 5 -29 11 -35 6 -6 14 -26 19 -44
11 -45 30 -98 46 -130 7 -14 12 -40 12 -59 -1 -19 4 -36 10 -38 7 -2 12 -18
12 -35 0 -18 7 -41 15 -51 8 -11 15 -32 15 -46 0 -14 7 -35 15 -46 8 -10 15
-38 15 -60 0 -24 6 -47 15 -54 8 -7 15 -29 15 -49 1 -20 7 -47 15 -61 8 -14
14 -42 15 -62 0 -20 5 -40 10 -43 6 -3 10 -25 10 -49 0 -23 7 -51 15 -62 8
-11 15 -41 15 -70 0 -33 5 -56 15 -64 9 -8 15 -30 15 -59 1 -25 7 -57 15 -71
8 -14 14 -51 15 -82 0 -31 5 -60 10 -63 6 -3 10 -32 10 -63 1 -31 7 -68 15
-82 8 -14 14 -52 15 -86 0 -35 7 -74 15 -90 10 -19 15 -58 15 -115 0 -62 4
-90 14 -98 15 -12 18 -52 34 -406 4 -97 12 -169 19 -182 10 -17 13 -159 13
-615 0 -506 -2 -597 -15 -622 -11 -21 -15 -64 -15 -177 0 -88 -4 -150 -10
-154 -6 -4 -10 -55 -10 -119 0 -89 -3 -116 -15 -126 -11 -9 -15 -34 -15 -100
0 -66 -4 -91 -15 -100 -11 -9 -15 -33 -15 -89 -1 -47 -6 -86 -15 -101 -8 -14
-14 -51 -15 -82 0 -31 -4 -60 -10 -63 -5 -3 -10 -32 -10 -64 0 -40 -5 -63 -15
-71 -10 -8 -15 -31 -15 -70 0 -39 -5 -62 -15 -70 -10 -8 -15 -31 -15 -67 0
-35 -5 -60 -15 -69 -9 -9 -15 -34 -15 -59 0 -24 -5 -47 -10 -50 -5 -3 -10 -25
-10 -48 0 -23 -7 -51 -15 -61 -8 -11 -15 -36 -15 -55 0 -20 -7 -45 -15 -55 -8
-11 -15 -34 -15 -52 0 -17 -7 -37 -15 -44 -9 -8 -15 -29 -15 -56 0 -23 -4 -46
-10 -49 -5 -3 -10 -16 -10 -28 0 -12 -7 -35 -15 -51 -8 -15 -15 -41 -15 -56 0
-15 -7 -33 -15 -40 -8 -7 -15 -25 -15 -40 0 -15 -7 -33 -15 -40 -8 -7 -15 -25
-15 -39 0 -15 -7 -36 -15 -47 -8 -10 -15 -32 -15 -47 0 -16 -7 -35 -15 -43 -8
-9 -15 -28 -15 -44 0 -16 -11 -55 -25 -86 -14 -31 -25 -62 -25 -69 0 -7 -14
-37 -30 -68 -17 -31 -30 -63 -30 -72 0 -8 -4 -15 -10 -15 -5 0 -10 -8 -10 -17
0 -24 -42 -123 -52 -123 -4 0 -8 -13 -8 -28 0 -16 -7 -37 -15 -48 -8 -10 -15
-29 -15 -42 0 -12 -4 -30 -9 -40 -5 -9 -12 -24 -15 -32 -3 -8 -10 -22 -15 -30
-5 -8 -12 -22 -15 -30 -3 -8 -10 -22 -15 -30 -22 -37 -61 -123 -61 -136 0 -17
-41 -98 -52 -102 -4 -2 -8 -9 -8 -15 0 -17 -141 -295 -173 -342 -15 -22 -27
-45 -27 -52 0 -7 -4 -13 -10 -13 -5 0 -10 -9 -10 -19 0 -11 -4 -22 -9 -25 -5
-4 -19 -27 -32 -54 -12 -26 -33 -61 -45 -79 -13 -17 -24 -36 -24 -40 0 -5 -19
-38 -43 -74 -24 -35 -52 -84 -64 -109 -11 -25 -30 -54 -42 -64 -12 -11 -21
-25 -21 -32 0 -7 -28 -54 -62 -104 -35 -51 -67 -99 -73 -108 -49 -79 -79 -123
-105 -157 -69 -89 -90 -118 -90 -126 0 -4 -20 -31 -45 -60 -25 -29 -45 -57
-45 -62 0 -5 -17 -29 -37 -52 -21 -24 -51 -62 -68 -85 -59 -82 -77 -105 -109
-140 -18 -19 -41 -49 -51 -65 -11 -17 -50 -62 -87 -102 -37 -40 -78 -89 -92
-110 -13 -21 -74 -87 -135 -148 -61 -60 -111 -116 -111 -123 0 -18 -402 -423
-460 -464 -25 -17 -93 -78 -152 -135 -59 -57 -112 -103 -118 -103 -7 0 -47
-33 -89 -74 -42 -40 -83 -77 -93 -82 -9 -5 -41 -30 -71 -57 -54 -47 -77 -65
-157 -122 -23 -16 -61 -47 -85 -67 -23 -21 -47 -38 -52 -38 -6 0 -31 -18 -56
-40 -25 -22 -49 -40 -54 -40 -4 0 -24 -14 -43 -31 -19 -17 -82 -61 -140 -99
-58 -38 -119 -80 -136 -94 -18 -14 -36 -26 -42 -26 -6 0 -17 -6 -24 -13 -24
-23 -109 -77 -122 -77 -7 0 -21 -9 -32 -21 -10 -11 -32 -27 -49 -35 -16 -8
-63 -34 -103 -59 -41 -25 -77 -45 -81 -45 -4 0 -23 -12 -42 -26 -19 -14 -54
-35 -79 -46 -25 -11 -67 -35 -95 -52 -27 -18 -63 -39 -80 -48 -276 -142 -429
-218 -440 -218 -7 0 -18 -7 -25 -15 -7 -8 -26 -15 -42 -15 -16 0 -31 -6 -34
-15 -4 -8 -14 -15 -24 -15 -10 0 -53 -18 -96 -40 -43 -22 -84 -40 -90 -40 -7
0 -25 -6 -41 -14 -46 -24 -100 -46 -112 -46 -6 0 -11 -4 -11 -10 0 -5 -13 -10
-29 -10 -16 0 -34 -7 -41 -15 -7 -8 -25 -15 -41 -15 -15 0 -34 -7 -43 -15 -8
-8 -21 -15 -28 -15 -7 0 -22 -7 -32 -15 -11 -8 -32 -15 -48 -15 -15 0 -28 -4
-28 -10 0 -5 -15 -10 -34 -10 -18 0 -39 -7 -46 -15 -7 -8 -20 -15 -29 -15 -10
0 -26 -7 -37 -15 -10 -8 -31 -15 -46 -15 -15 0 -29 -4 -32 -9 -3 -5 -22 -12
-43 -16 -20 -4 -46 -13 -57 -21 -11 -8 -33 -14 -48 -14 -16 0 -28 -4 -28 -10
0 -5 -20 -10 -44 -10 -26 0 -48 -6 -56 -15 -7 -8 -27 -15 -45 -15 -18 0 -38
-7 -45 -15 -7 -8 -26 -15 -42 -15 -16 0 -40 -7 -53 -16 -14 -9 -36 -14 -50
-12 -14 3 -33 -1 -42 -8 -10 -7 -37 -14 -59 -14 -24 0 -47 -6 -54 -15 -7 -9
-29 -15 -55 -15 -26 0 -48 -6 -55 -15 -8 -9 -30 -15 -60 -15 -30 0 -52 -6 -60
-15 -8 -9 -30 -15 -59 -15 -26 0 -52 -5 -59 -12 -6 -6 -37 -12 -69 -14 -32 -1
-59 -8 -61 -13 -2 -6 -31 -11 -67 -11 -43 0 -66 -5 -75 -15 -9 -11 -32 -15
-79 -15 -44 0 -74 -5 -87 -15 -12 -9 -43 -14 -85 -15 -36 0 -69 -4 -75 -9 -5
-6 -44 -11 -88 -12 -43 -2 -89 -9 -103 -16 -16 -8 -64 -13 -133 -13 -83 0
-110 -3 -120 -15 -10 -12 -39 -15 -142 -15 -89 0 -144 -5 -176 -15 -41 -14
-134 -15 -689 -13 -497 2 -645 6 -655 15 -8 9 -55 13 -157 13 -108 1 -153 4
-171 15 -17 9 -57 15 -120 15 -66 0 -101 5 -114 15 -14 11 -36 13 -88 9 -53
-5 -73 -3 -93 10 -16 11 -47 16 -92 16 -40 1 -78 7 -93 15 -14 8 -50 14 -81
15 -32 0 -63 6 -75 15 -11 8 -42 14 -75 15 -30 0 -60 5 -67 12 -7 7 -39 16
-72 20 -33 4 -87 12 -120 16 -33 4 -65 13 -72 20 -7 7 -31 12 -54 12 -25 0
-49 6 -58 15 -8 8 -32 15 -53 15 -21 1 -49 7 -63 15 -14 8 -37 14 -51 15 -14
0 -34 6 -44 14 -12 8 -32 12 -50 9 -21 -3 -35 0 -44 11 -8 9 -29 16 -50 16
-21 0 -46 7 -57 15 -10 8 -30 15 -44 15 -14 0 -36 7 -50 15 -14 8 -37 14 -51
15 -15 0 -32 7 -39 15 -7 9 -21 13 -31 10 -10 -3 -29 1 -43 10 -13 9 -37 18
-52 21 -16 3 -33 9 -38 15 -6 5 -24 9 -42 9 -17 0 -37 7 -44 15 -7 8 -25 15
-40 15 -15 0 -33 7 -40 15 -7 8 -23 15 -36 15 -14 0 -32 4 -42 9 -47 26 -87
41 -107 41 -13 0 -28 7 -35 15 -7 8 -21 15 -32 15 -10 0 -46 13 -80 30 -33 16
-66 30 -74 30 -8 0 -22 4 -32 9 -91 47 -142 71 -152 71 -6 0 -64 25 -128 56
-64 31 -169 80 -232 110 -63 31 -131 64 -150 75 -19 10 -84 44 -145 75 -130
66 -141 73 -180 100 -17 11 -50 31 -75 43 -53 26 -74 38 -117 68 -17 13 -36
23 -42 23 -6 0 -40 20 -75 45 -36 25 -68 45 -72 45 -7 0 -91 54 -219 140 -13
8 -58 39 -101 67 -117 78 -183 125 -219 156 -18 15 -37 27 -41 27 -5 0 -25 15
-44 33 -19 18 -56 45 -82 60 -27 15 -48 31 -48 35 0 4 -17 18 -38 32 -20 13
-60 46 -89 72 -28 26 -57 48 -63 48 -6 0 -44 31 -85 70 -41 38 -78 70 -82 70
-4 0 -44 35 -88 78 -44 42 -91 82 -103 87 -30 13 -772 756 -772 772 0 7 -41
56 -92 109 -51 52 -99 105 -108 118 -8 13 -36 47 -62 75 -27 29 -48 58 -48 65
0 6 -18 30 -41 51 -23 22 -51 56 -64 75 -12 19 -35 49 -49 65 -15 17 -34 43
-42 58 -9 16 -26 41 -39 55 -27 31 -60 75 -109 147 -19 28 -41 57 -50 64 -9 7
-16 22 -16 32 0 11 -4 19 -8 19 -4 0 -25 27 -46 60 -21 33 -42 60 -47 60 -4 0
-11 10 -15 23 -4 12 -17 35 -30 50 -13 16 -24 34 -24 41 0 7 -11 23 -25 36
-14 13 -25 28 -25 33 0 5 -20 40 -45 77 -25 37 -45 71 -45 75 0 4 -10 21 -22
38 -29 40 -44 65 -58 97 -6 14 -17 32 -25 40 -7 8 -25 38 -40 65 -14 28 -37
70 -51 94 -13 24 -24 49 -24 54 0 6 -7 18 -15 26 -20 23 -95 161 -95 177 0 7
-4 14 -8 16 -7 3 -85 158 -142 283 -28 61 -84 181 -124 268 -20 42 -36 82 -36
88 0 6 -11 33 -25 61 -14 27 -25 58 -25 68 0 9 -7 23 -15 30 -8 7 -15 23 -15
35 0 12 -7 28 -15 35 -8 7 -15 24 -15 39 0 14 -7 35 -15 45 -8 10 -12 22 -9
27 4 7 -14 50 -47 111 -5 10 -9 28 -9 40 0 13 -7 32 -15 42 -8 11 -15 29 -15
41 0 11 -7 31 -16 43 -9 13 -13 30 -10 38 3 8 -4 28 -15 44 -12 16 -19 36 -16
44 3 8 0 22 -8 30 -8 8 -15 27 -15 43 0 15 -7 37 -15 47 -8 11 -15 36 -15 57
0 20 -7 42 -15 49 -8 7 -15 27 -15 44 0 18 -5 37 -11 43 -12 12 -28 73 -36
140 -3 23 -11 47 -19 54 -8 6 -14 30 -14 53 0 22 -7 50 -15 60 -8 11 -15 38
-15 60 0 23 -7 50 -15 60 -8 11 -15 41 -15 66 0 25 -5 51 -12 58 -6 6 -11 31
-9 55 1 30 -3 48 -14 57 -10 8 -15 31 -15 69 -1 33 -7 64 -15 75 -9 12 -15 42
-15 76 0 31 -5 61 -12 68 -12 12 -20 64 -36 252 -4 47 -13 95 -20 107 -7 12
-12 59 -12 110 -1 61 -5 94 -15 107 -11 15 -15 50 -15 140 -1 86 -5 128 -15
146 -11 19 -14 70 -15 223 0 128 -4 206 -11 219 -16 29 -15 708 0 737 7 12 11
94 11 213 0 152 3 199 15 222 11 20 15 61 15 145 1 82 5 123 15 141 9 17 14
56 15 117 0 68 4 95 15 107 11 11 15 37 15 100 0 47 5 88 10 91 6 3 10 37 10
74 0 44 5 74 15 87 8 11 14 42 15 75 0 33 6 63 15 75 9 11 14 42 15 77 0 42 4
59 15 63 11 5 15 22 15 63 0 31 5 62 12 69 6 6 11 28 10 49 -1 20 5 47 13 60
8 12 15 42 15 66 0 27 6 49 15 57 9 7 15 29 15 51 0 20 7 44 15 53 9 8 15 33
15 59 0 27 6 49 15 57 8 7 15 27 15 46 0 18 4 36 10 39 5 3 10 23 10 44 0 22
6 44 15 51 8 7 15 27 15 46 0 18 7 39 15 48 8 8 15 27 15 43 0 15 7 37 15 47
8 11 13 27 10 36 -3 9 3 26 13 38 12 13 17 31 15 45 -3 14 2 29 11 36 9 8 16
26 16 40 0 15 7 36 15 47 8 10 15 31 15 45 0 15 7 32 15 39 8 7 15 25 15 40 0
15 7 33 15 40 8 7 15 23 15 36 0 13 5 24 10 24 6 0 10 12 10 26 0 14 7 39 15
55 8 16 22 42 30 58 8 16 15 35 15 43 0 7 11 36 25 63 13 28 25 57 25 66 0 8
7 24 15 35 8 10 15 29 15 42 0 12 3 22 8 22 7 0 17 21 82 170 18 41 37 79 41
85 5 5 9 17 9 26 0 9 7 22 15 29 8 7 15 20 15 30 0 10 7 23 15 30 8 7 15 21
15 31 0 11 4 19 9 19 5 0 12 14 16 30 4 17 11 30 16 30 5 0 9 8 9 19 0 10 7
24 15 31 8 7 15 21 15 30 0 10 3 20 8 22 4 2 23 35 41 73 19 39 48 89 63 112
15 23 28 49 28 57 0 9 4 16 9 16 5 0 14 12 20 28 13 35 67 129 92 160 10 14
19 29 19 35 0 5 18 36 40 69 22 33 40 62 40 64 0 2 19 32 43 68 23 35 50 77
59 93 10 15 30 46 45 69 16 23 46 69 68 104 22 35 57 83 78 107 20 24 37 50
37 57 0 8 7 20 16 27 9 7 31 36 49 64 17 27 42 59 54 69 11 11 21 25 21 33 0
8 20 36 45 62 25 26 45 52 45 58 0 5 18 27 41 48 22 22 50 56 61 75 12 19 43
58 70 87 26 28 48 56 48 61 0 6 32 43 71 84 39 40 82 90 96 112 34 53 530 575
547 576 5 0 73 62 151 139 78 76 159 150 181 164 21 14 72 57 113 96 41 39 78
71 83 71 4 0 35 24 67 54 32 30 69 60 82 67 13 6 42 29 64 50 22 21 58 50 80
65 22 14 42 30 45 34 3 4 23 18 45 32 22 14 51 36 65 48 14 12 41 32 60 45 19
12 41 30 49 39 7 9 17 16 21 16 4 0 34 18 66 41 105 72 166 113 204 139 21 14
63 42 94 63 31 20 58 37 60 37 2 0 31 18 64 40 33 22 64 40 69 40 6 0 21 8 34
18 13 11 51 33 84 51 33 18 67 39 75 46 8 7 38 25 65 39 28 15 58 31 68 36
148 82 308 168 348 185 25 11 52 25 60 31 8 6 63 32 122 59 60 27 110 52 113
57 3 4 13 8 22 8 14 0 137 55 214 96 14 8 32 14 40 14 7 0 36 11 63 25 28 13
60 25 71 25 12 0 27 7 34 15 7 8 20 15 29 15 10 0 26 7 37 15 10 8 28 15 40
15 11 0 29 7 40 15 10 8 29 15 41 15 12 0 36 8 55 17 61 30 68 33 86 33 10 0
27 7 38 15 10 8 30 15 44 15 14 0 34 7 44 15 11 8 32 15 46 15 14 0 31 5 37
11 7 7 24 13 39 15 15 1 37 7 48 12 51 22 94 35 133 39 23 3 47 11 54 19 6 8
26 14 44 14 18 0 38 6 44 14 7 8 31 16 54 19 67 8 128 24 140 36 6 6 29 11 51
11 23 0 50 7 60 15 11 8 38 15 60 15 23 0 50 7 60 15 11 8 41 15 67 15 26 0
51 5 54 10 3 6 25 10 49 10 23 0 51 7 62 15 12 9 43 14 85 15 47 0 70 4 79 15
8 10 31 15 69 15 35 0 65 6 77 15 12 9 44 14 91 15 48 0 73 4 76 13 2 8 30 12
90 12 55 0 90 4 98 13 9 8 46 12 109 12 69 0 102 4 116 15 14 11 51 15 149 15
93 1 137 5 155 15 20 11 75 15 255 15 127 1 239 5 250 10 22 8 335 6 740 -7z"/>
<path d="M3887 15373 c-4 -3 -7 -381 -7 -840 l0 -833 4603 -2 c3916 -3 4607
-5 4637 -17 65 -26 75 -30 140 -52 138 -47 453 -195 630 -296 120 -69 482
-319 510 -353 3 -3 37 -32 75 -64 173 -146 387 -362 509 -516 262 -328 435
-610 588 -955 74 -167 175 -461 218 -635 8 -32 13 -54 39 -172 6 -24 14 -72
20 -108 5 -36 15 -94 21 -130 30 -187 35 -262 35 -585 0 -274 -4 -365 -18
-470 -10 -71 -22 -159 -27 -195 -8 -58 -14 -88 -35 -195 -3 -16 -10 -46 -15
-65 -5 -19 -14 -57 -20 -85 -13 -53 -17 -69 -80 -270 -22 -71 -45 -139 -50
-150 -5 -11 -22 -54 -38 -95 -65 -165 -161 -362 -268 -548 -51 -88 -176 -280
-210 -321 -7 -9 -34 -45 -60 -81 -272 -372 -758 -808 -1150 -1031 -313 -178
-568 -297 -804 -372 -54 -18 -2401 -22 -2412 -5 -4 7 -8 971 -8 2142 0 1171
-2 2131 -4 2133 -6 6 -1657 4 -1667 -2 -5 -4 -9 -1167 -9 -2985 0 -2715 1
-2978 16 -2984 26 -10 4248 -7 4280 3 16 5 63 19 104 31 98 29 230 71 255 81
11 4 31 11 45 14 31 9 372 144 455 180 241 106 593 300 830 458 122 81 364
255 385 277 3 3 25 21 50 40 25 19 47 37 50 40 3 3 39 34 80 70 144 125 166
145 320 300 182 181 221 224 356 385 535 638 933 1403 1144 2200 28 103 38
147 50 200 7 33 16 74 20 90 4 17 13 59 20 95 6 36 16 88 22 115 16 76 36 224
59 445 16 151 23 882 10 1003 -6 53 -16 143 -21 200 -19 179 -57 411 -90 547
-5 19 -15 60 -21 90 -57 260 -181 657 -264 845 -7 17 -24 57 -37 90 -98 241
-289 608 -446 855 -656 1033 -1628 1836 -2757 2277 -136 53 -365 134 -435 154
-86 25 -107 31 -140 42 -27 9 -1175 12 -4756 14 -2596 2 -4724 0 -4727 -4z"/>
<path d="M3920 11945 l0 -845 1263 0 c969 0 1266 -3 1275 -12 9 -9 12 -785 12
-3430 l0 -3418 833 2 832 3 3 4273 2 4272 -2110 0 -2110 0 0 -845z"/>
<path d="M9052 12473 l3 -318 313 -2 312 -2 0 319 0 320 -315 0 -315 0 2 -317z"/>
<path d="M10087 12783 c-4 -3 -7 -145 -7 -314 l0 -309 23 -5 c13 -4 156 -5
318 -3 l294 3 3 318 2 317 -313 0 c-173 0 -317 -3 -320 -7z"/>
<path d="M9055 11747 c-3 -7 -4 -149 -3 -317 l3 -305 313 -3 312 -2 0 320 0
320 -310 0 c-241 0 -312 -3 -315 -13z"/>
<path d="M10092 11752 c-9 -7 -12 -77 -10 -318 l3 -309 318 -3 317 -2 -2 317
-3 318 -305 2 c-168 2 -311 -1 -318 -5z"/>
</g>
</svg>
